<?xml version="1.0" encoding="utf-8"?><!DOCTYPE svg PUBLIC "-//W3C//DTD SVG 1.1//EN" "http://www.w3.org/Graphics/SVG/1.1/DTD/svg11.dtd"><svg version="1.1" id="Layer_1" xmlns="http://www.w3.org/2000/svg" xmlns:xlink="http://www.w3.org/1999/xlink" x="0px" y="0px" viewBox="0 0 256 256" enable-background="new 0 0 256 256" xml:space="preserve"><linearGradient id="SVGID_1_" gradientUnits="userSpaceOnUse" x1="128" y1="1.204899e-08" x2="128" y2="256"><stop  offset="0" style="stop-color:#F5F5F6"/><stop  offset="1" style="stop-color:#EDEDEE"/></linearGradient><circle fill-rule="evenodd" clip-rule="evenodd" fill="url(#SVGID_1_)" cx="128" cy="128" r="128"/><circle fill-rule="evenodd" clip-rule="evenodd" fill="#FFFFFF" cx="128" cy="128" r="121.8"/><path fill-rule="evenodd" clip-rule="evenodd" fill="#EC1C24" d="M210.4,75.2l-68.5,67v83.3c0,1.5-6.5,2.7-13.9,2.8l0,0c-7.1-0.1-13.9-1.3-13.9-2.8v-83.3l-68.5-67c-1.1-1.1,2.4-6.3,7.8-11.7c5.4-5.4,10.7-8.9,11.7-7.8l62.8,61.3l62.8-61.3c1.1-1.1,6.3,2.4,11.7,7.8S211.4,74.1,210.4,75.2z"/></svg>