<?xml version="1.0" standalone="no"?>
<!DOCTYPE svg PUBLIC "-//W3C//DTD SVG 20010904//EN"
 "http://www.w3.org/TR/2001/REC-SVG-20010904/DTD/svg10.dtd">
<svg version="1.0" xmlns="http://www.w3.org/2000/svg"
 width="500.000000pt" height="500.000000pt" viewBox="0 0 500.000000 500.000000"
 preserveAspectRatio="xMidYMid meet">
<metadata>
Created by potrace 1.11, written by Peter Selinger 2001-2013
</metadata>
<g transform="translate(0.000000,500.000000) scale(0.100000,-0.100000)"
fill="#000000" stroke="none">
<path d="M573 3818 c3 -7 252 -623 554 -1368 l548 -1355 261 -3 260 -2 547
1352 c300 744 549 1361 553 1371 6 16 -14 17 -319 17 l-325 0 -10 -27 c-5 -16
-134 -365 -287 -778 -152 -412 -303 -826 -335 -920 -88 -253 -82 -239 -91
-223 -4 8 -48 131 -98 273 -50 143 -207 577 -350 965 l-259 705 -327 3 c-261
2 -326 0 -322 -10z"/>
<path d="M3812 3820 c-103 -22 -202 -104 -250 -208 -21 -46 -26 -73 -26 -137
-1 -69 3 -89 31 -147 37 -79 94 -137 171 -175 50 -24 69 -28 147 -28 77 0 98
4 147 27 73 34 142 103 176 176 23 49 27 69 26 147 -1 110 -21 162 -94 239
-83 88 -213 130 -328 106z"/>
<path d="M3584 2855 c-2 -5 -3 -404 -2 -885 l3 -875 303 -3 302 -2 -2 885 -3
886 -299 2 c-192 1 -300 -2 -302 -8z"/>
</g>
</svg>
